<svg xmlns="http://www.w3.org/2000/svg" xmlns:xlink="http://www.w3.org/1999/xlink" version="1.1" x="0px" y="0px" viewBox="0 0 100 125" enable-background="new 0 0 100 100" xml:space="preserve"><g fill="#3186A5" stroke="none"><path d="M98.071,88.895c-2.847-6.402-16.743-10.638-25.976-14.615c-9.106-3.923-8.005-6.323-8.292-9.552  c4.918,0.693,12.845,0.126,16.89-9.227c0,0-8.001,4.28-8.001-1.8c0-4.167,7.601-12.086,7.601-25.581  c0-13.495-12.161-27.182-30.125-27.182s-29.532,14.466-29.532,28.74c0,14.273,10.648,23.454,5.324,26.283  c0,0-3.161,1.83-6.655-0.832c0,0,4.212,10.714,17.22,9.225c-0.007,0.081-0.014,0.162-0.022,0.242  c-0.332,3.298,0.639,5.709-8.594,9.687c-9.233,3.977-23.129,8.214-25.976,14.615c-2.847,6.401-1.71,10.168-1.71,10.168h99.547  C99.771,99.063,100.919,95.296,98.071,88.895z"/></g></svg>