<?xml version="1.0" encoding="utf-8"?>
<!-- Generator: Adobe Illustrator 17.0.0, SVG Export Plug-In . SVG Version: 6.00 Build 0)  -->
<!DOCTYPE svg PUBLIC "-//W3C//DTD SVG 1.1//EN" "http://www.w3.org/Graphics/SVG/1.1/DTD/svg11.dtd">
<svg version="1.1" id="Layer_1" xmlns="http://www.w3.org/2000/svg" xmlns:xlink="http://www.w3.org/1999/xlink" x="0px" y="0px"
	 width="25px" height="25px" viewBox="0 0 25 25" enable-background="new 0 0 25 25" xml:space="preserve">
<g>
	<path fill="#BCBEC0" d="M20.5,1C22.43,1,24,2.57,24,4.5v16c0,1.93-1.57,3.5-3.5,3.5h-16C2.57,24,1,22.43,1,20.5v-16
		C1,2.57,2.57,1,4.5,1H20.5 M20.5,0h-16C2.025,0,0,2.025,0,4.5v16C0,22.975,2.025,25,4.5,25h16c2.475,0,4.5-2.025,4.5-4.5v-16
		C25,2.025,22.975,0,20.5,0L20.5,0z"/>
</g>
</svg>
