<?xml version="1.0" encoding="utf-8"?>
<!-- Generator: Adobe Illustrator 17.0.0, SVG Export Plug-In . SVG Version: 6.00 Build 0)  -->
<!DOCTYPE svg PUBLIC "-//W3C//DTD SVG 1.1//EN" "http://www.w3.org/Graphics/SVG/1.1/DTD/svg11.dtd">
<svg version="1.1" id="Layer_1" xmlns="http://www.w3.org/2000/svg" xmlns:xlink="http://www.w3.org/1999/xlink" x="0px" y="0px"
	 width="25px" height="25px" viewBox="0 0 25 25" enable-background="new 0 0 25 25" xml:space="preserve">
<g>
	<path fill="#84B13F" d="M20.5,0h-16C2.025,0,0,2.025,0,4.5v16C0,22.975,2.025,25,4.5,25h16c2.475,0,4.5-2.025,4.5-4.5v-16
		C25,2.025,22.975,0,20.5,0z M20.407,9.279l-8.653,8.674c-0.249,0.25-0.742,0.454-1.094,0.454H9.912
		c-0.353,0-0.845-0.205-1.094-0.454l-4.075-4.094c-0.249-0.25-0.248-0.659,0.001-0.908l1.603-1.603
		c0.249-0.25,0.658-0.25,0.908-0.001l2.604,2.598c0.25,0.25,0.658,0.249,0.907-0.001l7.136-7.153c0.249-0.25,0.658-0.25,0.908-0.002
		l1.595,1.584C20.655,8.622,20.656,9.029,20.407,9.279z"/>
</g>
</svg>
