<svg xmlns="http://www.w3.org/2000/svg" xmlns:xlink="http://www.w3.org/1999/xlink" version="1.1" x="0px" y="0px" viewBox="0 0 512 640" enable-background="new 0 0 512 512" xml:space="preserve"><g fill="#049DBF" stroke="none"><path d="M484.6,2H342.4c-5.6,0-10.2,4.5-10.2,10.2v30.5c0,5.6,4.5,10.2,10.2,10.2h80.9L245.2,230.9c-4,4-4,10.4,0,14.4l21.5,21.5   c4,4,10.4,4,14.4,0L459.2,88.7v80.9c0,5.6,4.5,10.2,10.2,10.2h30.5c5.6,0,10.2-4.5,10.2-10.2V27.4C510,13.4,498.6,2,484.6,2z"/><path d="M423.6,281.4h-30.5c-5.6,0-10.2,4.5-10.2,10.2v167.7H52.8V129h167.6c5.6,0,10.2-4.5,10.2-10.2V88.4   c0-5.6-4.5-10.2-10.2-10.2h-193C13.4,78.2,2,89.6,2,103.6v381c0,14,11.4,25.4,25.4,25.4h381c14,0,25.4-11.4,25.4-25.4V291.5   C433.8,285.9,429.3,281.4,423.6,281.4z"/></g></svg>