<svg xmlns="http://www.w3.org/2000/svg" xmlns:xlink="http://www.w3.org/1999/xlink" version="1.1" x="0px" y="0px" viewBox="0 0 144.083 180" enable-background="new 0 0 144.083 144" fill="#9CAEBD" xml:space="preserve"><path d="M113.821,105.279l10.621-50.992l-10.42-0.002v-4.879c0-5.721-4.654-10.375-10.375-10.375H63.618L52.291,28.747H30.016  c-5.721,0-10.375,4.655-10.375,10.376v65.751c0,5.722,4.654,10.376,10.375,10.376l68.059,0.003l5.572-0.003  c0.063,0,0.119-0.015,0.182-0.019C109.245,115.044,113.612,110.691,113.821,105.279z M103.467,109.25H39.562l5.431-27.948  l4.461-20.648l61.22-0.366h0.906h5.482l-9.156,43.971c-0.029,0.135-0.035,0.275-0.045,0.416c-0.004,0.066-0.02,0.133-0.02,0.197  c0,0.001,0,0.002,0,0.003C107.842,107.287,105.879,109.25,103.467,109.25z"/><polygon points="83.614,70.09 71.779,70.09 71.779,79.09 62.78,79.09 62.78,90.924 71.779,90.924 71.779,99.924 83.614,99.924   83.614,90.924 92.614,90.924 92.614,79.09 83.614,79.09 "/></svg>