<?xml version="1.0" encoding="utf-8"?>
<!-- Generator: Adobe Illustrator 17.1.0, SVG Export Plug-In . SVG Version: 6.00 Build 0)  -->
<!DOCTYPE svg PUBLIC "-//W3C//DTD SVG 1.1//EN" "http://www.w3.org/Graphics/SVG/1.1/DTD/svg11.dtd">
<svg version="1.1" id="Layer_1" xmlns="http://www.w3.org/2000/svg" xmlns:xlink="http://www.w3.org/1999/xlink" x="0px" y="0px"
	 viewBox="0 0 20 20.032" enable-background="new 0 0 20 20.032" xml:space="preserve">
<g id="icon_search_10_">
	<path fill="#818181" d="M20,16.918l-5.894-5.893c0.563-1.052,0.883-2.254,0.883-3.53C14.989,3.355,11.634,0,7.495,0
		S0,3.355,0,7.495c0,4.139,3.356,7.495,7.495,7.495c1.26,0,2.445-0.312,3.487-0.861l5.904,5.904L20,16.918z M2.499,7.495
		c0-2.754,2.241-4.995,4.995-4.995S12.49,4.74,12.49,7.495c0,2.754-2.241,4.995-4.995,4.995S2.499,10.249,2.499,7.495z"/>
</g>
</svg>
