<svg xmlns="http://www.w3.org/2000/svg" xmlns:xlink="http://www.w3.org/1999/xlink" version="1.1" x="0px" y="0px" viewBox="0 0 1024 1280" style="enable-background:new 0 0 1024 1024;" xml:space="preserve"><g><circle cx="512" cy="270" r="215"/><g><path d="M712,270c0,5.6-0.2,11.2-0.6,16.8c-0.2,2.8-0.5,5.5-0.8,8.3c0,0.4-0.7,4.9-0.2,1.5    c-0.2,1.4-0.4,2.7-0.6,4.1c-1.7,10.7-4.3,21.3-7.6,31.6c-1.6,5.1-3.5,10.1-5.5,15.1c-1.6,4.1,1.2-2.7-0.6,1.3    c-0.5,1.2-1.1,2.4-1.6,3.6c-1.1,2.4-2.3,4.8-3.5,7.2c-4.8,9.4-10.2,18.5-16.3,27.1c-1.5,2.1-3.1,4.3-4.7,6.3    c2-2.6-0.7,0.8-0.9,1.1c-0.8,1-1.7,2-2.5,3c-3.4,4-6.9,7.9-10.5,11.7c-3.6,3.8-7.4,7.4-11.3,10.9c-2,1.7-3.9,3.5-5.9,5.1    c-1,0.8-2,1.7-3,2.5c-0.7,0.6-3.2,2.5-1.1,0.9c-8.4,6.4-17.2,12.2-26.4,17.3c-4.6,2.6-9.4,5-14.2,7.2c-1.2,0.6-2.4,1.1-3.6,1.6    c-4,1.8,2.8-1.1-1.3,0.6c-2.5,1-5,2-7.5,2.9c-10.1,3.7-20.5,6.6-31.1,8.8c-2.7,0.5-5.4,1-8.1,1.5c-1.4,0.2-2.7,0.4-4.1,0.6    c3.4-0.5-1.1,0.1-1.5,0.2c-5.5,0.6-11.1,1.1-16.6,1.3c-11.2,0.4-22.4,0-33.5-1.3c-0.4,0-4.9-0.7-1.5-0.2c-1.4-0.2-2.7-0.4-4.1-0.6    c-2.7-0.4-5.4-0.9-8.1-1.5c-5.3-1.1-10.6-2.3-15.8-3.8c-5.2-1.5-10.3-3.1-15.3-4.9c-2.5-0.9-5-1.9-7.5-2.9    c-4.1-1.6,2.7,1.2-1.3-0.6c-1.2-0.5-2.4-1.1-3.6-1.6c-9.6-4.4-18.9-9.5-27.7-15.3c-4.4-2.9-8.7-5.9-12.9-9.1    c2.6,2-0.8-0.7-1.1-0.9c-1-0.8-2-1.7-3-2.5c-2-1.7-4-3.4-5.9-5.1c-7.8-7-15.1-14.6-21.8-22.6c-0.8-1-1.7-2-2.5-3    c-0.2-0.3-2.9-3.7-0.9-1.1c-1.6-2.1-3.1-4.2-4.7-6.3c-3-4.3-5.9-8.7-8.6-13.2c-2.7-4.5-5.3-9.1-7.7-13.9c-1.2-2.4-2.3-4.8-3.5-7.2    c-0.6-1.2-1.1-2.4-1.6-3.6c-1.5-3.2,0.6,1.7-0.6-1.3c-4-10-7.4-20.2-9.9-30.6c-1.3-5.3-2.4-10.6-3.2-16c-0.2-1.4-0.4-2.7-0.6-4.1    c0.5,3.4-0.1-1.1-0.2-1.5c-0.3-2.8-0.6-5.5-0.8-8.3c-0.9-11.2-0.9-22.4,0-33.6c0.2-2.8,0.5-5.5,0.8-8.3c0-0.4,0.7-4.9,0.2-1.5    c0.2-1.4,0.4-2.7,0.6-4.1c0.9-5.4,1.9-10.7,3.2-16c2.5-10.5,5.9-20.6,9.9-30.6c1.6-4.1-1.2,2.7,0.6-1.3c0.5-1.2,1.1-2.4,1.6-3.6    c1.1-2.4,2.3-4.8,3.5-7.2c2.4-4.7,4.9-9.3,7.7-13.9c2.7-4.5,5.6-8.9,8.6-13.2c1.5-2.1,3.1-4.3,4.7-6.3c-2,2.6,0.7-0.8,0.9-1.1    c0.8-1,1.7-2,2.5-3c6.7-8.1,14-15.6,21.8-22.6c2-1.7,3.9-3.5,5.9-5.1c1-0.8,2-1.7,3-2.5c0.3-0.2,3.7-2.9,1.1-0.9    c4.2-3.2,8.5-6.2,12.9-9.1c8.8-5.8,18.1-10.9,27.7-15.3c1.2-0.6,2.4-1.1,3.6-1.6c4-1.8-2.8,1.1,1.3-0.6c2.5-1,5-2,7.5-2.9    c5-1.8,10.1-3.5,15.3-4.9c5.2-1.5,10.5-2.7,15.8-3.8c2.7-0.5,5.4-1,8.1-1.5c1.4-0.2,2.7-0.4,4.1-0.6c-3.2,0.5,0.8-0.1,1.5-0.2    c11.1-1.3,22.3-1.7,33.5-1.3c5.6,0.2,11.1,0.6,16.6,1.3c0.4,0,4.9,0.7,1.5,0.2c1.4,0.2,2.7,0.4,4.1,0.6c2.7,0.4,5.4,0.9,8.1,1.5    c10.6,2.1,21,5.1,31.1,8.8c2.5,0.9,5,1.9,7.5,2.9c4.1,1.6-2.7-1.2,1.3,0.6c1.2,0.5,2.4,1.1,3.6,1.6c4.8,2.2,9.5,4.6,14.2,7.2    c9.2,5.1,18,10.9,26.4,17.3c-2.6-2,0.8,0.7,1.1,0.9c1,0.8,2,1.7,3,2.5c2,1.7,4,3.4,5.9,5.1c3.9,3.5,7.7,7.1,11.3,10.9    c3.6,3.8,7.1,7.7,10.5,11.7c0.8,1,1.7,2,2.5,3c0.2,0.3,2.9,3.7,0.9,1.1c1.6,2.1,3.1,4.2,4.7,6.3c6.1,8.6,11.5,17.7,16.3,27.1    c1.2,2.4,2.3,4.8,3.5,7.2c0.6,1.2,1.1,2.4,1.6,3.6c1.8,4-1.1-2.8,0.6,1.3c2,5,3.9,10,5.5,15.1c3.3,10.3,5.9,20.9,7.6,31.6    c0.2,1.4,0.4,2.7,0.6,4.1c-0.5-3.4,0.1,1.1,0.2,1.5c0.3,2.8,0.6,5.5,0.8,8.3C711.8,258.8,712,264.4,712,270c0,7.8,6.9,15.4,15,15    c8.1-0.4,15-6.6,15-15c-0.2-47-14.5-93.8-41.8-132.1c-27.4-38.5-65.5-67.8-109.9-84.1c-44.7-16.5-95-18.1-140.8-5.2    c-44.3,12.5-85,38.7-114.3,74.3c-30.4,37-48.7,81.9-52.6,129.6c-3.8,47.3,7.8,95.8,32.4,136.4c23.7,39,59.2,71.2,100.8,90    c44.8,20.3,94.6,26,142.8,16.3c45.1-9.1,87.4-32.7,119.2-65.9c32.1-33.5,54.2-76.9,61.2-122.8c1.8-12.1,2.9-24.3,3-36.6    c0-7.8-6.9-15.4-15-15C718.9,255.4,712,261.6,712,270z"/></g></g><g><path d="M831,969H193c-31.4,0-57-25.7-57-57v-57.5C136,698.6,263.6,571,419.5,571h185   C760.4,571,888,698.6,888,854.5V912C888,943.3,862.3,969,831,969z"/><g><path d="M831,954c-7.3,0-14.6,0-21.9,0c-19.6,0-39.2,0-58.8,0c-28.4,0-56.7,0-85.1,0c-33.6,0-67.2,0-100.9,0    c-35.4,0-70.7,0-106.1,0c-33.6,0-67.1,0-100.7,0c-28.3,0-56.5,0-84.8,0c-19.5,0-38.9,0-58.4,0c-7.6,0-15.2,0.2-22.8,0    c-0.9,0-1.8-0.1-2.8-0.1c-0.2,0-2.5-0.2-0.7,0c1.4,0.1-2.1-0.4-2.7-0.5c-3.1-0.6-6.1-1.6-9-2.7c-1.6-0.6,0.3,0.1,0.5,0.2    c-0.8-0.4-1.6-0.8-2.4-1.2c-1.2-0.6-2.3-1.3-3.4-1.9c-1.1-0.7-2.2-1.4-3.3-2.2c-0.2-0.1-1.9-1.4-0.6-0.4c1.5,1.2-1.2-1.1-1.5-1.3    c-2-1.8-3.7-3.7-5.5-5.6c-1.9-2-0.5-0.6-0.1,0c-0.4-0.5-0.8-1.1-1.1-1.6c-0.9-1.3-1.7-2.6-2.5-3.9c-0.8-1.3-1.4-2.7-2.1-4.1    c-0.8-1.5,0.1,0.3,0.2,0.6c-0.3-0.6-0.5-1.2-0.7-1.9c-1.1-3-1.9-6-2.5-9.1c-0.1-0.7-0.2-1.3-0.3-2c0,0.3,0.2,2.4,0.1,0.6    c-0.1-1.6-0.2-3.2-0.2-4.9c0-0.4,0-0.7,0-1.1c0-2.2,0-4.4,0-6.7c0-8,0-16,0-24c0-14.7-0.4-29.4,0.6-44c0.4-6,1-12,1.7-17.9    c-0.4,3.1,0.2-1.4,0.3-2.1c0.2-1.4,0.4-2.7,0.6-4.1c0.5-3.1,1.1-6.3,1.7-9.4c2.4-11.7,5.5-23.3,9.3-34.6    c1.9-5.7,4.1-11.3,6.4-16.9c0.7-1.6-0.1,0.3-0.2,0.5c0.3-0.6,0.5-1.2,0.8-1.8c0.6-1.4,1.3-2.8,1.9-4.3c1.3-2.8,2.6-5.6,4-8.4    c5.2-10.5,11-20.7,17.5-30.4c3.2-4.8,6.4-9.5,9.9-14c0.5-0.7,2.9-3.8,1.3-1.7c0.8-1,1.6-2.1,2.5-3.1c1.9-2.4,3.9-4.8,5.9-7.1    c7.6-8.8,15.7-17.2,24.3-25c4.4-4,8.9-7.9,13.5-11.6c1-0.8,2.1-1.6,3.1-2.5c-2.2,1.7,1-0.8,1.7-1.3c2.5-1.8,5-3.7,7.5-5.4    c9.6-6.7,19.6-12.8,29.9-18.3c5.1-2.7,10.3-5.2,15.5-7.6c1.4-0.6,2.8-1.3,4.3-1.9c0.6-0.3,1.2-0.5,1.8-0.8    c-0.2,0.1-2.1,0.9-0.5,0.2c2.9-1.2,5.8-2.3,8.7-3.4c11.2-4.2,22.6-7.6,34.2-10.4c6-1.4,12-2.6,18.1-3.6c1.4-0.2,2.7-0.4,4.1-0.6    c0.9-0.1,5.1-0.7,2.1-0.3c3.2-0.4,6.4-0.8,9.6-1.1c9-0.8,18-1.2,27-1.2c7.4,0,14.7,0,22.1,0c32.5,0,65.1,0,97.6,0    c21.6,0,43.2,0,64.8,0c10.3,0,20.6,0.5,30.8,1.7c1.6,0.2,3.2,0.4,4.8,0.6c1.8,0.2-0.3,0-0.6-0.1c0.7,0.1,1.4,0.2,2,0.3    c3.2,0.5,6.3,1,9.5,1.6c6,1.1,12,2.4,18,3.9c11.5,2.9,22.9,6.5,34,10.8c1.2,0.5,2.5,1,3.7,1.5c0.6,0.3,1.2,0.5,1.9,0.8    c-0.6-0.2-2.6-1.1,0.1,0c2.6,1.2,5.3,2.3,7.9,3.6c5.4,2.5,10.7,5.2,16,8.1c10.2,5.6,20.1,11.9,29.6,18.7c2.3,1.7,4.6,3.4,6.9,5.1    c-2-1.5,0.4,0.3,1.1,0.9c1.4,1.1,2.7,2.2,4.1,3.3c4.4,3.6,8.7,7.4,12.9,11.3c8.7,8.1,16.8,16.7,24.4,25.8c1.7,2,3.3,4.1,5,6.1    c1.8,2.2,0.4,0.6,0.1,0.1c0.4,0.5,0.8,1,1.2,1.6c0.9,1.2,1.8,2.5,2.8,3.7c3.5,4.8,6.9,9.7,10.1,14.7c6.3,9.9,12,20.1,17.1,30.7    c1.2,2.6,2.4,5.2,3.6,7.9c0.2,0.6,1.6,3.8,1.1,2.5c-0.6-1.5,0.2,0.5,0.3,0.7c0.4,1,0.8,2.1,1.2,3.1c2.1,5.4,4.1,10.9,5.9,16.4    c3.8,11.6,6.8,23.4,9,35.4c0.5,2.7,1,5.4,1.4,8.1c0.2,1.6,0.5,3.2,0.7,4.8c-0.4-2.8,0.1,1.3,0.2,2.2c0.7,6.2,1.2,12.4,1.5,18.7    c0.7,14.1,0.3,28.2,0.3,42.3c0,7.8,0,15.7,0,23.5c0,1.8,0,3.6,0,5.4c0,1.3,0,2.6-0.1,3.8c0,0.7-0.1,1.4-0.2,2.1    c0-0.2,0.4-2.4,0.1-0.6c-0.3,1.8-0.7,3.5-1.1,5.3c-0.3,1.3-0.7,2.6-1.1,3.9c-0.3,0.7-2,4.6-0.7,2c-1.1,2.4-2.4,4.7-3.8,6.9    c-0.5,0.7-1,1.4-1.5,2.2c-0.1,0.2-1.4,1.9-0.4,0.6c0.9-1.1-1.4,1.5-1.8,2c-1.9,2.1-4,4-6.2,5.8c1.9-1.6-0.4,0.3-1.2,0.8    c-1.3,0.9-2.6,1.7-3.9,2.4c-1.2,0.6-2.3,1.2-3.5,1.8c-1.5,0.8,0.3-0.1,0.6-0.2c-0.6,0.3-1.2,0.5-1.9,0.7c-2.7,1-5.5,1.8-8.4,2.3    c-0.7,0.1-1.3,0.2-2,0.4c-2.4,0.4,2.3-0.2-0.1,0C834.2,953.9,832.6,954,831,954c-7.8,0.1-15.4,6.8-15,15c0.4,8,6.6,15.1,15,15    c28.6-0.3,54.9-17.4,66.1-43.8c6.8-16,5.9-32.6,5.9-49.6c0-13.4,0.2-26.9,0-40.3c-0.4-25.8-4.1-51.8-11.2-76.6    c-13.6-48.1-39.6-92.5-74.6-128.1c-35-35.6-78.9-62.3-126.6-76.8c-32.7-10-66.2-12.7-100.1-12.7c-31.8,0-63.5,0-95.3,0    c-24.8,0-49.6,0-74.3,0c-45.8,0-90.8,10.3-132,30.4c-44.8,21.8-83.3,55.1-112.4,95.5c-29.5,41-47.5,89.2-53.5,139.3    c-2,16.5-2,33.1-2,49.7c0,13.7-0.1,27.4,0,41.2c0.3,26.9,15.6,52.9,40.2,64.6c10.8,5.2,22.2,7.5,34.2,7.5c12,0,23.9,0,35.9,0    c23.6,0,47.2,0,70.8,0c31.3,0,62.6,0,93.9,0c35.5,0,71.1,0,106.6,0c35.9,0,71.7,0,107.6,0c32.3,0,64.6,0,96.8,0    c25.2,0,50.5,0,75.7,0c14.2,0,28.5,0,42.7,0c1.9,0,3.8,0,5.7,0c7.8,0,15.4-6.9,15-15C845.6,960.9,839.4,954,831,954z"/></g></g></svg>